<?xml version="1.0" encoding="utf-8"?>
<!-- Svg Vector Icons : http://www.onlinewebfonts.com/icon -->
<!DOCTYPE svg PUBLIC "-//W3C//DTD SVG 1.1//EN" "http://www.w3.org/Graphics/SVG/1.1/DTD/svg11.dtd">
<svg version="1.1" xmlns="http://www.w3.org/2000/svg" xmlns:xlink="http://www.w3.org/1999/xlink" x="0px" y="0px" viewBox="0 0 1000 1000" enable-background="new 0 0 1000 1000" xml:space="preserve">
<metadata> Svg Vector Icons : http://www.onlinewebfonts.com/icon </metadata>
<g><path d="M516.6,13.9l401.8,201c13.4,6.4,20.8,19.7,20.8,33.6h0.5v503.2c0,15.4-10.4,30-24.3,34.7L516.6,986c-11,5.7-23.5,5-33.5,0L81.2,785c-13.4-6.3-20.9-19.6-20.9-33.4l0,0V248.4c0-15.6,10.1-29.6,24-34.8L483.1,13.9C493.9,8.5,506.2,8.9,516.6,13.9L516.6,13.9z M366,156.4L366,156.4l335,167.1l133.8-66.8L499.7,89.5L366,156.4L366,156.4z M164.8,256.8L164.8,256.8l334.8,167.6l150.5-75.6L315.7,181.2L164.8,256.8L164.8,256.8z M135.8,292.4L135.8,292.4v436l341.6,170.7V463.4L135.8,292.4L135.8,292.4z M522.7,899.1L522.7,899.1L864,728.3l0-436c-114,57.1-227.8,114-341.3,171V899.1L522.7,899.1z"/></g>
</svg>